<svg width="914" height="149" viewBox="0 0 914 149" fill="none" xmlns="http://www.w3.org/2000/svg">
<g clip-path="url(#clip0_8_553)">
<path fill-rule="evenodd" clip-rule="evenodd" d="M63.2604 38.316C57.3529 34.6915 50.363 32.8905 42.2458 32.8905C36.7215 32.8905 31.6483 34.1062 26.9808 36.5375C22.336 38.9688 18.7509 42.1881 16.2706 46.1728V0H0.554688V115.691H16.2931V103.534C18.7734 107.631 22.3585 110.918 27.0034 113.327C31.6483 115.758 36.6764 116.974 42.0879 116.974C50.3179 116.974 57.3529 115.196 63.1928 111.616C69.0327 108.059 73.4972 103.084 76.5863 96.7129C79.6753 90.3419 81.2086 83.0929 81.2086 74.9885C81.2086 66.8841 79.6979 59.5226 76.6539 53.1966C73.6325 46.8706 69.168 41.9179 63.2604 38.2934V38.316ZM65.2897 99.6395H16.2931V50.5626H65.2897V99.6395ZM112.528 34.1962H96.7891V115.691H112.528V34.1962ZM141.907 8.57715H157.646H157.668V34.1736H181.682V47.7936H157.668V101.463H181.682V115.713H168.852C160.622 115.713 154.083 113.327 149.213 108.577C144.343 103.827 141.907 97.2757 141.907 88.9686V47.8161H125.199V34.1962H141.907V8.57715ZM371.79 46.488C377.315 46.488 382.14 47.9963 386.311 51.0355C390.483 54.0521 392.94 57.9017 393.684 62.5393H409.423C408.656 56.4835 406.492 51.2156 402.929 46.7356C399.366 42.2557 394.812 38.7888 389.287 36.3574C383.763 33.9261 377.811 32.7104 371.43 32.7104C363.109 32.7104 355.871 34.624 349.761 38.4736C343.65 42.3007 338.961 47.411 335.714 53.782C332.467 60.153 330.843 67.1768 330.843 74.8535C330.843 82.5302 332.467 89.554 335.714 95.925C338.961 102.296 343.628 107.406 349.761 111.233C355.894 115.06 363.087 116.997 371.43 116.997C381.711 116.997 390.28 114.34 397.157 109.05C404.034 103.759 408.115 96.7805 409.4 88.1358H393.82C392.512 92.7733 389.896 96.4428 385.95 99.1443C382.004 101.846 377.269 103.196 371.745 103.196C363.966 103.196 357.923 100.518 353.639 95.1821C349.355 89.8242 347.236 83.048 347.236 74.8535C347.236 66.659 349.355 59.7252 353.572 54.4348C357.788 49.1444 363.853 46.488 371.745 46.488H371.79ZM288.115 36.2897C292.828 38.5635 296.48 41.4901 299.073 45.047V45.0245V34.1736H314.812V115.668H299.073V104.66C297.112 108.217 293.752 111.166 288.927 113.484C284.101 115.803 278.893 116.974 273.256 116.974C265.048 116.974 257.991 115.173 252.083 111.548C246.198 107.924 241.711 102.971 238.622 96.6452C235.533 90.3193 234 83.2279 234 75.0109C234 66.7939 235.556 59.545 238.622 53.219C241.689 46.893 246.176 41.9403 252.083 38.3158C257.968 34.6914 264.981 32.8904 273.098 32.8904C278.397 32.8904 283.402 34.016 288.115 36.2897ZM249.896 99.6619H299.231V50.5625H249.896V99.6619ZM897.766 34.0161L876.187 95.2721L854.767 34.0161H838.532L868.882 116.501L857.833 148.739H872.94L885.274 112.764L914 34.0161H897.766ZM581.757 46.1363C579.277 42.1462 575.7 38.9614 571.069 36.5375C566.424 34.1061 561.328 32.8905 555.804 32.8905C547.687 32.8905 540.719 34.6915 534.88 38.3159C529.04 41.9404 524.575 46.9382 521.486 53.3092C518.397 59.6801 516.864 66.9291 516.864 75.0335C516.864 83.138 518.397 90.3419 521.486 96.6679C524.575 102.994 529.062 107.947 534.947 111.571C540.855 115.195 547.845 116.996 555.962 116.996C561.373 116.996 566.402 115.781 571.046 113.349C575.691 110.918 579.276 107.654 581.757 103.557V115.713H597.495V0H581.757V46.1363ZM532.76 99.6395H581.779V50.5401H532.76V99.6395ZM800.855 32.8904H799.569C794.271 33.0029 789.423 34.1286 785.049 36.2897C780.674 38.4509 777.067 41.31 774.248 44.8669C771.43 41.31 767.822 38.4284 763.38 36.2897C758.938 34.1286 754.068 33.0029 748.769 32.8904H746.649C741.892 33.0029 737.518 34.1286 733.504 36.2897C729.491 38.4509 726.266 41.31 723.763 44.8669V34.1736H708.025V115.668H723.763V50.3599H760.922V115.668H776.503V50.3599H813.82V115.668H829.558V63.8223C829.558 54.4347 826.965 46.9155 821.779 41.31C816.593 35.6819 809.603 32.8904 800.855 32.8904ZM669.265 99.7971C673.053 97.3208 675.533 93.7413 676.728 89.1038L676.683 89.0813H692.421C690.911 97.5234 686.739 104.255 679.93 109.342C673.12 114.408 664.665 116.952 654.609 116.952C646.379 116.952 639.163 115.015 632.94 111.121C626.717 107.226 621.937 102.048 618.577 95.5648C615.217 89.0813 613.549 82.0124 613.549 74.3357C613.549 66.659 615.127 59.6802 618.261 53.3542C621.418 47.0508 625.95 42.0306 631.903 38.2935C637.855 34.579 644.913 32.7104 653.008 32.7104C661.102 32.7104 668.092 34.4664 673.932 37.9783C679.772 41.4903 684.214 46.1728 687.235 52.071C690.279 57.9467 691.79 64.4078 691.79 71.4316C691.79 73.5928 691.7 75.6639 691.474 77.6H628.994C629.648 85.3893 632.309 91.6477 636.954 96.3978C641.621 101.148 647.506 103.534 654.654 103.534C660.606 103.534 665.477 102.273 669.265 99.7971ZM653.053 45.3624C646.649 45.3624 641.441 47.1183 637.382 50.6302H637.405C633.346 54.1422 630.73 59.2975 629.535 66.0962H675.939C675.398 59.8378 673.143 54.8175 669.129 51.0355C665.116 47.2534 659.75 45.3624 653.053 45.3624ZM484.891 45.047C482.298 41.4901 478.645 38.5635 473.932 36.2897C469.22 34.016 464.214 32.8904 458.915 32.8904C450.798 32.8904 443.786 34.6914 437.901 38.3158C431.993 41.9403 427.506 46.893 424.44 53.219C421.373 59.545 419.817 66.7939 419.817 75.0109C419.817 83.2279 421.351 90.3193 424.44 96.6452C427.529 102.971 432.016 107.924 437.901 111.548C443.808 115.173 450.866 116.974 459.073 116.974C464.71 116.974 469.919 115.803 474.744 113.484C479.569 111.166 482.929 108.217 484.891 104.66V115.668H500.629V34.1736H484.891V45.0245V45.047ZM485.048 99.6619H435.714V50.5625H485.048V99.6619ZM96.7666 0.157593H112.482V15.8487H96.7666V0.157593Z" fill="#040404"/>
</g>
<defs>
<clipPath id="clip0_8_553">
<rect width="914" height="149" fill="white"/>
</clipPath>
</defs>
</svg>
